<svg xmlns="http://www.w3.org/2000/svg" width="140" height="70" fill="none"><defs><clipPath id="a"><rect width="139" height="69" fill="#fff" fill-opacity="0" rx="-.5" transform="translate(.5 .5)"/></clipPath></defs><rect width="139" height="69" fill="none" rx="-.5" transform="translate(.5 .5)"/><g clip-path="url(#a)"><path fill="#81B3D3" d="M140 0H0l60.36 65.69c5.27 5.81 14 5.81 19.27 0L140 0Z"/><path fill="#23A9E1" d="m37.23.5 32.56 37.9L102.26.7 37.23.5Z"/><path fill="#FFF" d="M61.98 14.7h17.55c-1.32-.8-4.46-4.6-6.09-3.2-.1.1-4.97-5.7-8.11-2.9-2.74 2.5-4.06-.3-7.1 1.6-3.66 2.4 2.03 3.7 3.75 4.5Zm27.09-3.5-9.94.1c3.95-4.5 5.68-4 9.94-.1Z"/><path fill="#491213" d="M99.01 3.6V1.2h2.13l-2.13 2.4ZM49.1 13c.1.1 2.43-2.4 6.18-4.9 3.45-2.3 8.73-4.9 14.61-4.9 5.89 0 11.26 2.7 14.71 5 3.76 2.4 6.09 4.8 6.19 4.9l-2.53 3c-4.57.6-7.82 3.9-12.28 3.19-2.23-.39-2.33-1.59-2.94-2.89-.51-1-1.32-.8-2.33-1.2-.92-.4-1.53-1.1-3.45-.7-1.63.4-1.83 2.9-3.96 2.79-1.12-.09-1.22-1.59-2.84-3.59-4.16-4.9-7.95-4.29-10.59.21L49.1 13ZM40.57 1.2v1.9l-1.62-1.9h1.62Zm54.69 0h3.24v2.99L95.26 8V1.2ZM91.1 12.6V1.2h3.55v7.4l-3.55 4Zm-.51-10.4v9.9a26.48 26.48 0 0 0-3.65-3l3.65-6.9Zm-4.16-.3v6.8c-.51-.31-.91-.7-1.52-1-.71-.4-1.42-.9-2.23-1.3l3.75-4.5Zm-4.46-.2V6c-1.02-.5-2.13-1-3.15-1.5l3.15-2.8Zm.6-.5h3.76l-3.76 4.6V1.2Zm4.37 0h3.65l-3.65 7.1V1.2Zm-8.93 0h3.96l-3.55 3.1c-.11 0-.21-.11-.31-.11l-.1-2.99Zm-.51.4V4c-1.01-.4-2.03-.7-3.14-.9l3.14-1.5Zm-4.26 0v1.3l-2.23-.3 2.23-1Zm-6.9 0 2.23 1c-.81 0-1.52.1-2.23.3V1.6Zm-4.16 0 3.15 1.5c-1.12.2-2.13.5-3.15.9V1.6Zm3.66 1.2-3.35-1.6h3.35v1.6Zm3.55-.4-2.84-1.3h2.84v1.3Zm.71-1.2h2.94L70.1 2.5V1.2Zm3.75 0h3.25l-3.25 1.6V1.2ZM61.27 4.3l-3.55-3.1h3.96v2.99l-.41.11Zm-3.65-2.6 3.14 2.7c-1.11.4-2.13.9-3.14 1.5V1.7Zm-4.36.2 3.65 4.5c-1.32.7-2.54 1.5-3.65 2.4V1.9ZM49 2.2l3.65 7c-1.32 1-2.54 2-3.65 3.2V2.2Zm3.75 6L49.1 1.1h3.65v7.1Zm4.36-2.5-3.75-4.6h3.75v4.6ZM44.33 7.5l-3.25-3.8V1.2h3.25v6.3Zm.61-6.3h3.55v11.2l-3.55-4.2v-7ZM36.52 0v14.6L70 54.5 103.47 15V0H36.52Z"/><path fill="#23A9E1" d="M67.36 46 70 41.8l2.63 4.2L70 50.2 67.36 46Z"/><path fill="#DC6243" d="M75.27 30.6c-3.45-2-2.64-3.5.2-4.9 1.52-.7 4.87-3.4 6.19-2.5l-6.39 7.4Zm-2.33 2.49c-2.03-.09-4.37-.39-6.39.11 1.21.3 4.26 1.2 1.42 1.89 1.01 1.41 2.63 1.31 3.65.11-.41-.2-.71-.5-1.02-.7 1.12-.3 2.13-.91 2.34-1.41Zm1.21-1.59c-.91-.8-1.92-.8-2.73 0-1.22-2.1-5.48-1.4-7.51-1.7 1.11 2.6 9.74 3.1 10.24 1.7Zm-6.89-2.2c-1.63-.5-6.9-.4-3.45-1.8 1.11-.4 6.79.1 3.45 1.8Zm2.02-3c-.5-1.1.41-2.4 1.73-1.4 1.22.8-.61 2-1.73 1.4Zm-2.94.1c-2.33.7-5.37-.8-1.62-1.5 2.33-.5 4.77.5 1.62 1.5Zm-2.63-6.2c-.51 1.6-1.53 1.9-1.43 0 .11-2.3 1.63-1.7 3.25-2.6 1.32-.7 2.03-3.4 4.36-1.8 1.02.7 2.24.1 2.54 1.2 0-.1-2.94 6.7-1.32 6.7-3.25 0-1.83-3.8-.61-6.41-1.22.61-3.14 4.31-1.52 5.01-.81 1.1-3.45 2.6-4.77 1.5-1.11-1-.5-2.3-.5-3.6ZM59.65 23c-5.68 0-1.83-8.6.1-8.1 2.23.7 1.93 8.2-.1 8.1Zm-6.29-8.2c-2.64-.1-1.52-2.6.3-3.1 1.73-.5 5.28 1.1 6.49 2.2-1.82.6-4.16.5-6.18.6-.21-2-.71-1.3-.61.3Z"/><path fill="#F49774" d="M72.84 25.8c-2.95-3 4.36-2.7 5.58-3.8.81.3 7.1-5.4 8.62-5-1.12 1.29-3.45 5.3-5.07 5.3-1.32 0-2.64-.2-3.66.7-1.52 1.4-3.95 2.1-5.47 2.8Z"/><path fill="#F4B1A4" d="M73.75 22.2c-1.62.9-3.15-2.5-.31-2.2 1.83.2 3.76-.21 5.48.1a5.98 5.98 0 0 1-5.17 2.1Z"/><path fill="#FFF" d="M51.84 20.9c.3.4.6.8.5 1.4 0 .4-.61 1-.2 1.2l1.52-1.8c-.4-.1-3.55-3.8-3.55-4.2l-2.13 1.1c.1.4.81 0 1.22 0 .51 0 .91.4 1.32.69-1.12.91-3.86 3.31-4.16 3.31-.1 0-.71-.4-.71 0 0 .2.61.7.71.8l1.42 1.7c.4-.2-.1-.5.1-.8.1-.2 3.25-2.7 3.96-3.4Zm-3.45-4.5c.3-.11.4.3.61 0l-1.63-1.9c-.2-.3-.51-.6-.51 0 .11.4-4.05 3.7-4.26 3.79-.3.11-.5-.29-.71.11l1.42 1.7c.21.19.31.4.51.6.2.2.1-.41.1-.41-.1-.29.31-.59.61-.79 1.02-1 3.55-3.1 3.86-3.1Zm-5.79-.6c-1.11.3-2.43-.1-2.74-1.3-.4-1.2.41-2.4 1.32-3.1.92-.7 2.34-.6 2.84.5.21.5.11 1.1-.1 1.6-.1.3-.4.6 0 .8.61-.7 1.12-1.4 1.73-2.1-.71-.4-1.02-1.1-1.52-1.7-.61-.71-1.32-1.41-2.34-1.51-1.93-.3-3.65 1.71-3.85 3.41-.1.9.2 1.8.81 2.6.51.6 1.22 1.1 1.62 1.79.2.11 1.83-.69 2.13-.79.21 0 .1-.1.1-.2Zm25.87 23.6c-.71-.5-2.63-3-3.04-3.5l-.2-.31-.21.11c-.1.1.11.39 0 .6-.5.79-3.75 3.2-3.95 3.4-.41.2-.81-.11-1.02.2.51.6 1.83 2.3 2.03 2.3.31 0 .1-.5.1-.6.1-.2 1.73-1.6 2.34-2.1.2-.2.4.3.61.5.2.3.3.7.2 1-.1.2-.51.6-.2.8.4-.5 1.52-1.8 1.72-2 .2-.21-.41 0-.3-.1-.21.1-.51.2-.71 0-.11 0-.71-.7-.61-.8.3-.2.61-.6 1.01-.7.61-.11 1.02 1 1.12 1.39.1.41.1.81-.1 1.11-.11.3-.31.5 0 .6l1.42-1.9c0 .1-.11.1-.21 0Zm-9.33-8.9c-.71 0-1.42.3-2.03.8a3.51 3.51 0 0 0-.51 4.79c1.32 1.71 3.45 1.91 5.18.71a3.52 3.52 0 0 0 .5-4.8c-.81-1-2.02-1.5-3.14-1.5Zm1.22 1.4c.91-.1 1.52.8 1.11 1.8-.4 1-1.42 2-2.43 2.39-1.22.5-2.03-.5-1.52-1.69.4-1 1.42-2 2.43-2.4.1 0 .2-.1.41-.1Zm-2.84-4.6c.3 0 .61.4.81 0l-1.42-1.7c-.41.2 0 .4-.1.6-.21.3-1.73.5-2.13.6.1-.4.6-1.7.81-1.8.4-.3.61.3.81-.1l-1.83-2.1c-.2-.2-.4-.7-.61-.4 0 0 0 1-.1 1.1-.1.2-.61 2.4-1.21 2.9-.31.3-1.53 1.3-1.83 1.4-.3.1-.51-.4-.81 0l1.62 1.9c.1.1.41.6.51.6.3.1 0-.6.1-.7.1-.3 1.62-1.8 2.33-1.9.92-.2 2.03-.5 3.05-.4ZM82.07 34c.1.4.2.9.1 1.3-.1.6-.61 1.9-1.42 1.5-.81-.4-1.42-1.1-2.13-1.71.51-.59 1.01-1.09 1.93-.79.2.1.4 0 .2-.21-.31-.19-2.03-1.29-2.13-1.19-.2.19.3.6.1 1-.1.3-.41.5-.61.8-.51-.4-1.22-.8-.71-1.5.41-.4.81-.8 1.42-.9.41-.1 1.22.29 1.32-.1-.71-.3-1.42-.7-2.13-1 .1.5-2.23 2.89-2.74 3.5-.1.1-.41.39-.41.5 0 .3.41.1.41.1.3-.1 4.46 3.29 4.57 3.6.1.19-.11.4 0 .5 0 0 .1.1.2.1.3-.3 2.94-3.91 3.55-4l-1.52-2.41c-.41.21-.1.71 0 .91Zm-4.06 4.4c-1.32-.9-3.65.8-4.06 1-.71.3-1.22-.4-.81-1 .3-.5.91-.81 1.52-.81.2 0 .91.11.91 0 .11-.09.11-.09 0-.19-.6-.4-1.11-.81-1.72-1.1-.1.7-.91 1.1-1.32 1.6-.51.6-1.01 1.3-1.01 2 0 .69.4 1.4 1.11 1.7.71.4 1.52.1 2.23-.3.41-.3.82-.6 1.22-.8.61-.3 1.52 0 1.32.8-.2.7-.91 1.3-1.62 1.5-.41.1-.81.1-1.22-.1-.3-.1-.61-.5-.81-.1l2.33 1.6c.1-.5.31-.7.71-1 .51-.4.92-.9 1.32-1.4.81-.9 1.12-2.5-.1-3.4Zm17.85-28.1-.91 1-.81 1c-.2.2-.3.3 0 .5.51-.3 3.55 4.8 3.35 5.49-.51.21-4.57-3.29-4.67-3.49 0-.1.2-.7-.1-.6-.1 0-.51.6-.61.7l-.61.7c.21.3.31 0 .61 0 .2.1 1.22.9 1.52 1.1-.5 0-1.72.09-1.92.09-.61.11-.31-.39-.71-.59L89.47 18l-.91 1v.1c.2.19.1.1.41 0 .3-.1 4.36 3.2 4.46 3.4.2.3-.1.6.3.8l1.22-1.4c.1-.1.1-.1 0-.1-.3-.2-.3.1-.71.1-.3-.1-2.94-2.2-3.85-3l5.37-.2c.21 0 .71.59.71.8-.1.2-.3.4 0 .5.31-.4.61-.71.92-1.1l.1-.2c.1 0 .1-.1.1-.2l.1-.1c.31-.3 1.22-1.3 1.12-1.4-.31-.3-.41.29-.81 0-.21-.21-.82-1.2-.92-1.4-.2-.3.41-.6.61-.7.51-.3 2.13-.8 2.33.2 0 .2-.2.4-.1.5 0 0 .1.2.21.1l2.13-2.6-.21-.2c-.5.5-5.58-1.5-5.88-1.8-.1-.2-.1-.8-.31-.8Zm-.2 2.6c.81.3 1.52.6 2.34 1l-.61.3c-.21.1-.41.3-.61.5l-1.12-1.8Zm-6.69 7.7c-1.12-.1-2.24.4-3.05 1.3-1.21 1.5-1.11 3.7.41 4.9 1.52 1.2 3.75.9 4.97-.5 1.22-1.5 1.12-3.7-.41-4.9a4.1 4.1 0 0 0-1.92-.8Zm-1.42 1.6c.6 0 1.31.4 1.72.7.81.5 2.23 1.7 1.52 2.7 0-.1.1-.1-.1.1-.81.8-2.23.1-2.94-.5-.71-.5-2.03-1.7-1.22-2.7.31-.2.61-.3 1.02-.3Zm-3.15 4.3c-1.22-.1-2.43.5-3.35 1.6-.61.8-1.32 1.5-1.92 2.3.2.3.5-.1.81.1.3.2 4.16 3.3 4.16 3.5.1.3-.21.4.1.59.1.11 2.94-3.39 3.24-3.99.41-1.1.11-2.4-.81-3.2-.81-.6-1.52-.9-2.23-.9Zm-1.12 1.6h.31c1.42.4 3.45 2.1 2.13 3.6l-.41.39c-.2.21-4.26-2.99-4.05-3.19.4-.5 1.31-.9 2.02-.8Z"/></g></svg>