<svg xmlns="http://www.w3.org/2000/svg" width="8" height="19.94" fill="none" viewBox="0 0 8 19.94"><defs><clipPath id="a"><rect width="7" height="18.94" fill="#fff" fill-opacity="0" rx="-.5" transform="translate(.5 .5)"/></clipPath></defs><rect width="7" height="18.94" fill="none" rx="-.5" transform="translate(.5 .5)"/><g clip-path="url(#a)"><path fill="#FFF" d="M6.91 9.43 2.16 5.18c-.25-.25-.75-.25-1.12 0-.38.25-.25.75 0 1l4.12 3.75-4 3.75a.76.76 0 0 0 0 1c0 .13.38.25.5.25.13 0 .38-.12.5-.25l4.75-4.25a.58.58 0 0 0 0-1Z"/></g></svg>